<?xml version="1.0" encoding="UTF-8" standalone="no"?>
<!DOCTYPE svg PUBLIC "-//W3C//DTD SVG 1.1//EN" "http://www.w3.org/Graphics/SVG/1.1/DTD/svg11.dtd">
<svg width="100%" height="100%" viewBox="0 0 3544 3544" version="1.1" xmlns="http://www.w3.org/2000/svg" xmlns:xlink="http://www.w3.org/1999/xlink" xml:space="preserve" xmlns:serif="http://www.serif.com/" style="fill-rule:evenodd;clip-rule:evenodd;stroke-linecap:round;stroke-linejoin:round;stroke-miterlimit:1.5;">
    <g transform="matrix(0.892232,0,0,1.01259,211.325,1423.12)">
        <path d="M0,951.749L3507.87,951.749" style="fill:none;stroke:black;stroke-width:181.21px;"/>
    </g>
    <g transform="matrix(0.962877,0,0,0.962877,82.8271,82.8271)">
        <circle cx="1753.94" cy="1753.94" r="1753.94" style="fill:none;stroke:black;stroke-width:179.6px;"/>
    </g>
    <g transform="matrix(0.892232,0,0,1.01259,211.325,220.204)">
        <path d="M0,951.749L3507.87,951.749" style="fill:none;stroke:black;stroke-width:181.21px;"/>
    </g>
    <g transform="matrix(5.96808e-17,-0.962877,1.01259,6.11796e-17,812.51,3460.48)">
        <path d="M0,951.749C1169.29,-65.14 2338.58,-147.623 3507.87,951.749" style="fill:none;stroke:black;stroke-width:175.02px;"/>
    </g>
    <g transform="matrix(-5.96808e-17,-0.962877,-1.01259,6.11796e-17,2735.39,3460.48)">
        <path d="M0,951.749C1169.29,-65.14 2338.58,-147.623 3507.87,951.749" style="fill:none;stroke:black;stroke-width:175.02px;"/>
    </g>
</svg>
