<?xml version="1.0" encoding="UTF-8" standalone="no"?>
<!DOCTYPE svg PUBLIC "-//W3C//DTD SVG 1.1//EN" "http://www.w3.org/Graphics/SVG/1.1/DTD/svg11.dtd">
<svg width="100%" height="100%" viewBox="0 0 141 141" version="1.1" xmlns="http://www.w3.org/2000/svg" xmlns:xlink="http://www.w3.org/1999/xlink" xml:space="preserve" xmlns:serif="http://www.serif.com/" style="fill-rule:evenodd;clip-rule:evenodd;stroke-linecap:round;stroke-linejoin:round;">
    <g id="Artboard1" transform="matrix(6.40909,0,0,6.40909,-6.40909,-6.40909)">
        <rect x="1" y="1" width="22" height="22" style="fill:none;"/>
        <g transform="matrix(1.02199,0,0,1.02199,-0.26383,-0.26383)">
            <path d="M2,12C2,17.523 6.477,22 12,22C17.523,22 22,17.523 22,12C22,6.477 17.523,2 12,2C6.477,2 2,6.477 2,12Z" style="fill:none;fill-rule:nonzero;stroke:black;stroke-width:1.5px;"/>
        </g>
        <g transform="matrix(1.02199,0,0,1.02199,-0.26383,-0.26383)">
            <path d="M13,2.049C13,2.049 16,6 16,12C16,18 13,21.951 13,21.951" style="fill:none;fill-rule:nonzero;stroke:black;stroke-width:1.5px;"/>
        </g>
        <g transform="matrix(1.02199,0,0,1.02199,-0.26383,-0.26383)">
            <path d="M11,21.951C11,21.951 8,18 8,12C8,6 11,2.049 11,2.049" style="fill:none;fill-rule:nonzero;stroke:black;stroke-width:1.5px;"/>
        </g>
        <g transform="matrix(1.02199,0,0,1.02199,-0.26383,-0.26383)">
            <path d="M2.63,15.5L21.37,15.5" style="fill:none;fill-rule:nonzero;stroke:black;stroke-width:1.5px;"/>
        </g>
        <g transform="matrix(1.02199,0,0,1.02199,-0.26383,-0.26383)">
            <path d="M2.63,8.5L21.37,8.5" style="fill:none;fill-rule:nonzero;stroke:black;stroke-width:1.5px;"/>
        </g>
    </g>
</svg>
